<svg width="115" height="93" viewBox="0 0 115 93" fill="none" xmlns="http://www.w3.org/2000/svg">
<g filter="url(#filter0_d_856_3732)">
<path d="M112 1H3V88L58.0046 70.8023L112 88V1Z" fill="url(#paint0_linear_856_3732)"/>
</g>
<path d="M52.6725 14.624V15.98H50.4405V23H48.7605V15.98H46.5285V14.624H52.6725ZM56.8503 23.108C56.2103 23.108 55.6343 22.968 55.1223 22.688C54.6103 22.4 54.2063 21.996 53.9103 21.476C53.6223 20.956 53.4783 20.356 53.4783 19.676C53.4783 18.996 53.6263 18.396 53.9223 17.876C54.2263 17.356 54.6383 16.956 55.1583 16.676C55.6783 16.388 56.2583 16.244 56.8983 16.244C57.5383 16.244 58.1183 16.388 58.6383 16.676C59.1583 16.956 59.5663 17.356 59.8623 17.876C60.1663 18.396 60.3183 18.996 60.3183 19.676C60.3183 20.356 60.1623 20.956 59.8503 21.476C59.5463 21.996 59.1303 22.4 58.6023 22.688C58.0823 22.968 57.4983 23.108 56.8503 23.108ZM56.8503 21.644C57.1543 21.644 57.4383 21.572 57.7023 21.428C57.9743 21.276 58.1903 21.052 58.3503 20.756C58.5103 20.46 58.5903 20.1 58.5903 19.676C58.5903 19.044 58.4223 18.56 58.0863 18.224C57.7583 17.88 57.3543 17.708 56.8743 17.708C56.3943 17.708 55.9903 17.88 55.6623 18.224C55.3423 18.56 55.1823 19.044 55.1823 19.676C55.1823 20.308 55.3383 20.796 55.6503 21.14C55.9703 21.476 56.3703 21.644 56.8503 21.644ZM63.2307 17.312C63.4467 17.008 63.7427 16.756 64.1187 16.556C64.5027 16.348 64.9387 16.244 65.4267 16.244C65.9947 16.244 66.5067 16.384 66.9627 16.664C67.4267 16.944 67.7907 17.344 68.0547 17.864C68.3267 18.376 68.4627 18.972 68.4627 19.652C68.4627 20.332 68.3267 20.936 68.0547 21.464C67.7907 21.984 67.4267 22.388 66.9627 22.676C66.5067 22.964 65.9947 23.108 65.4267 23.108C64.9387 23.108 64.5067 23.008 64.1307 22.808C63.7627 22.608 63.4627 22.356 63.2307 22.052V26.168H61.5507V16.352H63.2307V17.312ZM66.7467 19.652C66.7467 19.252 66.6627 18.908 66.4947 18.62C66.3347 18.324 66.1187 18.1 65.8467 17.948C65.5827 17.796 65.2947 17.72 64.9827 17.72C64.6787 17.72 64.3907 17.8 64.1187 17.96C63.8547 18.112 63.6387 18.336 63.4707 18.632C63.3107 18.928 63.2307 19.276 63.2307 19.676C63.2307 20.076 63.3107 20.424 63.4707 20.72C63.6387 21.016 63.8547 21.244 64.1187 21.404C64.3907 21.556 64.6787 21.632 64.9827 21.632C65.2947 21.632 65.5827 21.552 65.8467 21.392C66.1187 21.232 66.3347 21.004 66.4947 20.708C66.6627 20.412 66.7467 20.06 66.7467 19.652ZM15.5855 39L13.7375 35.736H12.9455V39H11.2655V30.624H14.4095C15.0575 30.624 15.6095 30.74 16.0655 30.972C16.5215 31.196 16.8615 31.504 17.0855 31.896C17.3175 32.28 17.4335 32.712 17.4335 33.192C17.4335 33.744 17.2735 34.244 16.9535 34.692C16.6335 35.132 16.1575 35.436 15.5255 35.604L17.5295 39H15.5855ZM12.9455 34.476H14.3495C14.8055 34.476 15.1455 34.368 15.3695 34.152C15.5935 33.928 15.7055 33.62 15.7055 33.228C15.7055 32.844 15.5935 32.548 15.3695 32.34C15.1455 32.124 14.8055 32.016 14.3495 32.016H12.9455V34.476ZM25.133 35.532C25.133 35.772 25.117 35.988 25.085 36.18H20.225C20.265 36.66 20.433 37.036 20.729 37.308C21.025 37.58 21.389 37.716 21.821 37.716C22.445 37.716 22.889 37.448 23.153 36.912H24.965C24.773 37.552 24.405 38.08 23.861 38.496C23.317 38.904 22.649 39.108 21.857 39.108C21.217 39.108 20.641 38.968 20.129 38.688C19.625 38.4 19.229 37.996 18.941 37.476C18.661 36.956 18.521 36.356 18.521 35.676C18.521 34.988 18.661 34.384 18.941 33.864C19.221 33.344 19.613 32.944 20.117 32.664C20.621 32.384 21.201 32.244 21.857 32.244C22.489 32.244 23.053 32.38 23.549 32.652C24.053 32.924 24.441 33.312 24.713 33.816C24.993 34.312 25.133 34.884 25.133 35.532ZM23.393 35.052C23.385 34.62 23.229 34.276 22.925 34.02C22.621 33.756 22.249 33.624 21.809 33.624C21.393 33.624 21.041 33.752 20.753 34.008C20.473 34.256 20.301 34.604 20.237 35.052H23.393ZM25.9272 35.676C25.9272 34.988 26.0673 34.388 26.3473 33.876C26.6273 33.356 27.0153 32.956 27.5113 32.676C28.0073 32.388 28.5753 32.244 29.2153 32.244C30.0393 32.244 30.7193 32.452 31.2553 32.868C31.7993 33.276 32.1633 33.852 32.3473 34.596H30.5353C30.4393 34.308 30.2753 34.084 30.0433 33.924C29.8193 33.756 29.5393 33.672 29.2033 33.672C28.7233 33.672 28.3433 33.848 28.0633 34.2C27.7833 34.544 27.6433 35.036 27.6433 35.676C27.6433 36.308 27.7833 36.8 28.0633 37.152C28.3433 37.496 28.7233 37.668 29.2033 37.668C29.8833 37.668 30.3273 37.364 30.5353 36.756H32.3473C32.1633 37.476 31.7993 38.048 31.2553 38.472C30.7113 38.896 30.0313 39.108 29.2153 39.108C28.5753 39.108 28.0073 38.968 27.5113 38.688C27.0153 38.4 26.6273 38 26.3473 37.488C26.0673 36.968 25.9272 36.364 25.9272 35.676ZM36.53 39.108C35.89 39.108 35.314 38.968 34.802 38.688C34.29 38.4 33.886 37.996 33.59 37.476C33.302 36.956 33.158 36.356 33.158 35.676C33.158 34.996 33.306 34.396 33.602 33.876C33.906 33.356 34.318 32.956 34.838 32.676C35.358 32.388 35.938 32.244 36.578 32.244C37.218 32.244 37.798 32.388 38.318 32.676C38.838 32.956 39.246 33.356 39.542 33.876C39.846 34.396 39.998 34.996 39.998 35.676C39.998 36.356 39.842 36.956 39.53 37.476C39.226 37.996 38.81 38.4 38.282 38.688C37.762 38.968 37.178 39.108 36.53 39.108ZM36.53 37.644C36.834 37.644 37.118 37.572 37.382 37.428C37.654 37.276 37.87 37.052 38.03 36.756C38.19 36.46 38.27 36.1 38.27 35.676C38.27 35.044 38.102 34.56 37.766 34.224C37.438 33.88 37.034 33.708 36.554 33.708C36.074 33.708 35.67 33.88 35.342 34.224C35.022 34.56 34.862 35.044 34.862 35.676C34.862 36.308 35.018 36.796 35.33 37.14C35.65 37.476 36.05 37.644 36.53 37.644ZM49.4863 32.256C50.3023 32.256 50.9583 32.508 51.4543 33.012C51.9583 33.508 52.2103 34.204 52.2103 35.1V39H50.5303V35.328C50.5303 34.808 50.3983 34.412 50.1343 34.14C49.8703 33.86 49.5103 33.72 49.0543 33.72C48.5983 33.72 48.2343 33.86 47.9623 34.14C47.6983 34.412 47.5663 34.808 47.5663 35.328V39H45.8863V35.328C45.8863 34.808 45.7543 34.412 45.4903 34.14C45.2263 33.86 44.8663 33.72 44.4103 33.72C43.9463 33.72 43.5783 33.86 43.3063 34.14C43.0423 34.412 42.9103 34.808 42.9103 35.328V39H41.2303V32.352H42.9103V33.156C43.1263 32.876 43.4023 32.656 43.7383 32.496C44.0823 32.336 44.4583 32.256 44.8663 32.256C45.3863 32.256 45.8503 32.368 46.2583 32.592C46.6663 32.808 46.9823 33.12 47.2063 33.528C47.4223 33.144 47.7343 32.836 48.1423 32.604C48.5583 32.372 49.0063 32.256 49.4863 32.256ZM62.0606 32.256C62.8766 32.256 63.5326 32.508 64.0286 33.012C64.5326 33.508 64.7846 34.204 64.7846 35.1V39H63.1046V35.328C63.1046 34.808 62.9726 34.412 62.7086 34.14C62.4446 33.86 62.0846 33.72 61.6286 33.72C61.1726 33.72 60.8086 33.86 60.5366 34.14C60.2726 34.412 60.1406 34.808 60.1406 35.328V39H58.4606V35.328C58.4606 34.808 58.3286 34.412 58.0646 34.14C57.8006 33.86 57.4406 33.72 56.9846 33.72C56.5206 33.72 56.1526 33.86 55.8806 34.14C55.6166 34.412 55.4846 34.808 55.4846 35.328V39H53.8046V32.352H55.4846V33.156C55.7006 32.876 55.9766 32.656 56.3126 32.496C56.6566 32.336 57.0326 32.256 57.4406 32.256C57.9606 32.256 58.4246 32.368 58.8326 32.592C59.2406 32.808 59.5566 33.12 59.7806 33.528C59.9966 33.144 60.3086 32.836 60.7166 32.604C61.1326 32.372 61.5806 32.256 62.0606 32.256ZM72.5588 35.532C72.5588 35.772 72.5428 35.988 72.5108 36.18H67.6508C67.6908 36.66 67.8588 37.036 68.1548 37.308C68.4508 37.58 68.8148 37.716 69.2468 37.716C69.8708 37.716 70.3148 37.448 70.5788 36.912H72.3908C72.1988 37.552 71.8308 38.08 71.2868 38.496C70.7428 38.904 70.0748 39.108 69.2828 39.108C68.6428 39.108 68.0668 38.968 67.5548 38.688C67.0508 38.4 66.6548 37.996 66.3668 37.476C66.0868 36.956 65.9468 36.356 65.9468 35.676C65.9468 34.988 66.0868 34.384 66.3668 33.864C66.6468 33.344 67.0388 32.944 67.5428 32.664C68.0468 32.384 68.6268 32.244 69.2828 32.244C69.9148 32.244 70.4788 32.38 70.9748 32.652C71.4788 32.924 71.8668 33.312 72.1388 33.816C72.4188 34.312 72.5588 34.884 72.5588 35.532ZM70.8188 35.052C70.8108 34.62 70.6548 34.276 70.3508 34.02C70.0468 33.756 69.6748 33.624 69.2348 33.624C68.8188 33.624 68.4668 33.752 68.1788 34.008C67.8988 34.256 67.7268 34.604 67.6628 35.052H70.8188ZM77.469 32.256C78.261 32.256 78.901 32.508 79.389 33.012C79.877 33.508 80.121 34.204 80.121 35.1V39H78.441V35.328C78.441 34.8 78.309 34.396 78.045 34.116C77.781 33.828 77.421 33.684 76.965 33.684C76.501 33.684 76.133 33.828 75.861 34.116C75.597 34.396 75.465 34.8 75.465 35.328V39H73.785V32.352H75.465V33.18C75.689 32.892 75.973 32.668 76.317 32.508C76.669 32.34 77.053 32.256 77.469 32.256ZM81.2866 35.652C81.2866 34.98 81.4186 34.384 81.6826 33.864C81.9546 33.344 82.3226 32.944 82.7866 32.664C83.2506 32.384 83.7666 32.244 84.3346 32.244C84.7666 32.244 85.1786 32.34 85.5706 32.532C85.9626 32.716 86.2746 32.964 86.5066 33.276V30.12H88.2106V39H86.5066V38.016C86.2986 38.344 86.0066 38.608 85.6306 38.808C85.2546 39.008 84.8186 39.108 84.3226 39.108C83.7626 39.108 83.2506 38.964 82.7866 38.676C82.3226 38.388 81.9546 37.984 81.6826 37.464C81.4186 36.936 81.2866 36.332 81.2866 35.652ZM86.5186 35.676C86.5186 35.268 86.4386 34.92 86.2786 34.632C86.1186 34.336 85.9026 34.112 85.6306 33.96C85.3586 33.8 85.0666 33.72 84.7546 33.72C84.4426 33.72 84.1546 33.796 83.8906 33.948C83.6266 34.1 83.4106 34.324 83.2426 34.62C83.0826 34.908 83.0026 35.252 83.0026 35.652C83.0026 36.052 83.0826 36.404 83.2426 36.708C83.4106 37.004 83.6266 37.232 83.8906 37.392C84.1626 37.552 84.4506 37.632 84.7546 37.632C85.0666 37.632 85.3586 37.556 85.6306 37.404C85.9026 37.244 86.1186 37.02 86.2786 36.732C86.4386 36.436 86.5186 36.084 86.5186 35.676ZM96.0314 35.532C96.0314 35.772 96.0154 35.988 95.9834 36.18H91.1234C91.1634 36.66 91.3314 37.036 91.6274 37.308C91.9234 37.58 92.2874 37.716 92.7194 37.716C93.3434 37.716 93.7874 37.448 94.0514 36.912H95.8634C95.6714 37.552 95.3034 38.08 94.7594 38.496C94.2154 38.904 93.5474 39.108 92.7554 39.108C92.1154 39.108 91.5394 38.968 91.0274 38.688C90.5234 38.4 90.1274 37.996 89.8394 37.476C89.5594 36.956 89.4194 36.356 89.4194 35.676C89.4194 34.988 89.5594 34.384 89.8394 33.864C90.1194 33.344 90.5114 32.944 91.0154 32.664C91.5194 32.384 92.0994 32.244 92.7554 32.244C93.3874 32.244 93.9514 32.38 94.4474 32.652C94.9514 32.924 95.3394 33.312 95.6114 33.816C95.8914 34.312 96.0314 34.884 96.0314 35.532ZM94.2914 35.052C94.2834 34.62 94.1274 34.276 93.8234 34.02C93.5194 33.756 93.1474 33.624 92.7074 33.624C92.2914 33.624 91.9394 33.752 91.6514 34.008C91.3714 34.256 91.1994 34.604 91.1354 35.052H94.2914ZM96.8257 35.652C96.8257 34.98 96.9577 34.384 97.2217 33.864C97.4937 33.344 97.8617 32.944 98.3257 32.664C98.7897 32.384 99.3057 32.244 99.8737 32.244C100.306 32.244 100.718 32.34 101.11 32.532C101.502 32.716 101.814 32.964 102.046 33.276V30.12H103.75V39H102.046V38.016C101.838 38.344 101.546 38.608 101.17 38.808C100.794 39.008 100.358 39.108 99.8617 39.108C99.3017 39.108 98.7897 38.964 98.3257 38.676C97.8617 38.388 97.4937 37.984 97.2217 37.464C96.9577 36.936 96.8257 36.332 96.8257 35.652ZM102.058 35.676C102.058 35.268 101.978 34.92 101.818 34.632C101.658 34.336 101.442 34.112 101.17 33.96C100.898 33.8 100.606 33.72 100.294 33.72C99.9817 33.72 99.6937 33.796 99.4297 33.948C99.1657 34.1 98.9497 34.324 98.7817 34.62C98.6217 34.908 98.5417 35.252 98.5417 35.652C98.5417 36.052 98.6217 36.404 98.7817 36.708C98.9497 37.004 99.1657 37.232 99.4297 37.392C99.7017 37.552 99.9897 37.632 100.294 37.632C100.606 37.632 100.898 37.556 101.17 37.404C101.442 37.244 101.658 37.02 101.818 36.732C101.978 36.436 102.058 36.084 102.058 35.676ZM40.5649 49.216C40.5649 49.664 40.4569 50.084 40.2409 50.476C40.0329 50.868 39.7009 51.184 39.2449 51.424C38.7969 51.664 38.2289 51.784 37.5409 51.784H36.1369V55H34.4569V46.624H37.5409C38.1889 46.624 38.7409 46.736 39.1969 46.96C39.6529 47.184 39.9929 47.492 40.2169 47.884C40.4489 48.276 40.5649 48.72 40.5649 49.216ZM37.4689 50.428C37.9329 50.428 38.2769 50.324 38.5009 50.116C38.7249 49.9 38.8369 49.6 38.8369 49.216C38.8369 48.4 38.3809 47.992 37.4689 47.992H36.1369V50.428H37.4689ZM43.4377 49.384C43.6537 49.032 43.9337 48.756 44.2777 48.556C44.6297 48.356 45.0297 48.256 45.4777 48.256V50.02H45.0337C44.5057 50.02 44.1057 50.144 43.8337 50.392C43.5697 50.64 43.4377 51.072 43.4377 51.688V55H41.7577V48.352H43.4377V49.384ZM49.5613 55.108C48.9213 55.108 48.3453 54.968 47.8333 54.688C47.3213 54.4 46.9173 53.996 46.6213 53.476C46.3333 52.956 46.1893 52.356 46.1893 51.676C46.1893 50.996 46.3373 50.396 46.6333 49.876C46.9373 49.356 47.3493 48.956 47.8693 48.676C48.3893 48.388 48.9693 48.244 49.6093 48.244C50.2493 48.244 50.8293 48.388 51.3493 48.676C51.8693 48.956 52.2773 49.356 52.5733 49.876C52.8773 50.396 53.0293 50.996 53.0293 51.676C53.0293 52.356 52.8733 52.956 52.5612 53.476C52.2573 53.996 51.8413 54.4 51.3133 54.688C50.7933 54.968 50.2093 55.108 49.5613 55.108ZM49.5613 53.644C49.8653 53.644 50.1493 53.572 50.4133 53.428C50.6853 53.276 50.9013 53.052 51.0613 52.756C51.2213 52.46 51.3013 52.1 51.3013 51.676C51.3013 51.044 51.1333 50.56 50.7973 50.224C50.4693 49.88 50.0653 49.708 49.5853 49.708C49.1053 49.708 48.7013 49.88 48.3733 50.224C48.0533 50.56 47.8933 51.044 47.8933 51.676C47.8933 52.308 48.0493 52.796 48.3613 53.14C48.6813 53.476 49.0813 53.644 49.5613 53.644ZM53.8296 51.652C53.8296 50.98 53.9616 50.384 54.2256 49.864C54.4976 49.344 54.8656 48.944 55.3296 48.664C55.7936 48.384 56.3096 48.244 56.8776 48.244C57.3096 48.244 57.7216 48.34 58.1136 48.532C58.5056 48.716 58.8176 48.964 59.0496 49.276V46.12H60.7536V55H59.0496V54.016C58.8416 54.344 58.5496 54.608 58.1736 54.808C57.7976 55.008 57.3616 55.108 56.8656 55.108C56.3056 55.108 55.7936 54.964 55.3296 54.676C54.8656 54.388 54.4976 53.984 54.2256 53.464C53.9616 52.936 53.8296 52.332 53.8296 51.652ZM59.0616 51.676C59.0616 51.268 58.9816 50.92 58.8216 50.632C58.6616 50.336 58.4456 50.112 58.1736 49.96C57.9016 49.8 57.6096 49.72 57.2976 49.72C56.9856 49.72 56.6976 49.796 56.4336 49.948C56.1696 50.1 55.9536 50.324 55.7856 50.62C55.6256 50.908 55.5456 51.252 55.5456 51.652C55.5456 52.052 55.6256 52.404 55.7856 52.708C55.9536 53.004 56.1696 53.232 56.4336 53.392C56.7056 53.552 56.9936 53.632 57.2976 53.632C57.6096 53.632 57.9016 53.556 58.1736 53.404C58.4456 53.244 58.6616 53.02 58.8216 52.732C58.9816 52.436 59.0616 52.084 59.0616 51.676ZM68.6704 48.352V55H66.9784V54.16C66.7624 54.448 66.4784 54.676 66.1264 54.844C65.7824 55.004 65.4064 55.084 64.9984 55.084C64.4784 55.084 64.0184 54.976 63.6184 54.76C63.2184 54.536 62.9024 54.212 62.6704 53.788C62.4464 53.356 62.3344 52.844 62.3344 52.252V48.352H64.0144V52.012C64.0144 52.54 64.1464 52.948 64.4104 53.236C64.6744 53.516 65.0344 53.656 65.4904 53.656C65.9544 53.656 66.3184 53.516 66.5824 53.236C66.8464 52.948 66.9784 52.54 66.9784 52.012V48.352H68.6704ZM69.896 51.676C69.896 50.988 70.036 50.388 70.316 49.876C70.596 49.356 70.984 48.956 71.48 48.676C71.976 48.388 72.544 48.244 73.184 48.244C74.008 48.244 74.688 48.452 75.224 48.868C75.768 49.276 76.132 49.852 76.316 50.596H74.504C74.408 50.308 74.244 50.084 74.012 49.924C73.788 49.756 73.508 49.672 73.172 49.672C72.692 49.672 72.312 49.848 72.032 50.2C71.752 50.544 71.612 51.036 71.612 51.676C71.612 52.308 71.752 52.8 72.032 53.152C72.312 53.496 72.692 53.668 73.172 53.668C73.852 53.668 74.296 53.364 74.504 52.756H76.316C76.132 53.476 75.768 54.048 75.224 54.472C74.68 54.896 74 55.108 73.184 55.108C72.544 55.108 71.976 54.968 71.48 54.688C70.984 54.4 70.596 54 70.316 53.488C70.036 52.968 69.896 52.364 69.896 51.676ZM79.5028 49.732V52.948C79.5028 53.172 79.5548 53.336 79.6588 53.44C79.7708 53.536 79.9548 53.584 80.2108 53.584H80.9908V55H79.9348C78.5188 55 77.8108 54.312 77.8108 52.936V49.732H77.0188V48.352H77.8108V46.708H79.5028V48.352H80.9908V49.732H79.5028Z" fill="white"/>
<defs>
<filter id="filter0_d_856_3732" x="0" y="0" width="115" height="93" filterUnits="userSpaceOnUse" color-interpolation-filters="sRGB">
<feFlood flood-opacity="0" result="BackgroundImageFix"/>
<feColorMatrix in="SourceAlpha" type="matrix" values="0 0 0 0 0 0 0 0 0 0 0 0 0 0 0 0 0 0 127 0" result="hardAlpha"/>
<feOffset dy="2"/>
<feGaussianBlur stdDeviation="1.5"/>
<feComposite in2="hardAlpha" operator="out"/>
<feColorMatrix type="matrix" values="0 0 0 0 0 0 0 0 0 0 0 0 0 0 0 0 0 0 0.15 0"/>
<feBlend mode="normal" in2="BackgroundImageFix" result="effect1_dropShadow_856_3732"/>
<feBlend mode="normal" in="SourceGraphic" in2="effect1_dropShadow_856_3732" result="shape"/>
</filter>
<linearGradient id="paint0_linear_856_3732" x1="57.5" y1="1" x2="57.5" y2="88" gradientUnits="userSpaceOnUse">
<stop stop-color="#FDC539"/>
<stop offset="1" stop-color="#FF9D43"/>
</linearGradient>
</defs>
</svg>
