<svg width="168" height="77" viewBox="0 0 168 77" fill="none" xmlns="http://www.w3.org/2000/svg">
<path d="M71.1198 39.4877L70.8252 46.5388C70.8252 46.5388 76.5555 47.4194 83.1663 40.8086C84.9274 39.3387 89.9227 33.4628 89.9227 33.4628L87.718 32.8769L88.4529 31.5527L85.8113 31.9964C85.8113 31.9964 84.1924 31.5527 83.4609 32.2876C82.7294 33.0226 77.5986 39.3387 71.1198 39.4877Z" fill="#EFB58E"/>
<path d="M49.394 57.8482C49.394 57.8482 49.394 68.2792 49.5396 69.3054C49.6853 70.3315 57.6203 71.8047 59.0901 70.7752C58.9411 70.1893 56.8854 68.5738 57.18 67.5443C57.4746 66.5147 57.7659 57.1133 57.7659 57.1133H51.4226C50.6801 57.1127 49.961 57.3728 49.3906 57.8482H49.394Z" fill="#EFB58E"/>
<path d="M15.3143 26.4147L14.874 35.3759C14.874 35.3759 20.2927 34.641 20.164 38.7626C20.0353 42.8842 16.7773 43.1653 15.3143 43.6089C19.1345 45.8137 21.7795 47.1345 18.2539 50.9547C21.9251 53.305 29.7111 57.7111 30.8863 58.0057C32.0615 58.3004 47.7791 57.2708 51.7449 57.4165C55.7107 57.5621 68.7833 56.5359 69.5182 55.9466C70.2531 55.3574 71.4283 28.037 71.2827 26.7161C71.1371 25.3953 54.5254 15.1032 53.9462 14.2227C52.6254 15.6925 31.9328 31.322 29.4165 31.8504C26.9002 32.3787 15.3143 26.4147 15.3143 26.4147Z" fill="#E53C3C"/>
<path d="M10.6131 22.7392C9.8206 24.3377 26.6253 32.1407 28.5354 31.8325C30.4455 31.5243 52.3303 15.2377 53.8001 14.2217C55.8558 15.5459 70.0901 25.0828 70.9876 26.2681C71.1641 27.1393 71.2627 28.0245 71.2822 28.9131C71.2822 28.9131 75.248 29.499 75.9829 28.9131C76.7178 28.3272 76.2742 27.1487 74.0728 25.2386C71.8715 23.3285 55.2699 11.5767 53.3599 10.5471C51.4498 9.51758 39.2577 5.12843 37.4966 4.81686C35.7355 4.50528 11.5139 20.9951 10.6131 22.7392Z" fill="#914E37"/>
<path d="M24.7224 10.1584C24.7224 10.1584 27.4656 8.59372 28.6408 8.69194C29.816 8.79015 32.2578 9.48104 32.6472 10.4496C33.0367 11.4182 32.7454 17.5989 32.4542 18.09C32.1629 18.5811 28.8304 20.7316 28.0515 20.6334C27.2726 20.5352 24.553 19.1737 24.1365 18.7741C23.7199 18.3745 24.7224 10.1584 24.7224 10.1584Z" fill="#E53C3C"/>
<path d="M37.2771 36.0319C37.4329 33.7628 39.4717 32.6147 42.4892 32.5063C45.5068 32.398 48.145 33.6815 47.9079 36.1064C47.6709 38.5313 44.7041 39.9266 42.3334 39.8521C39.9628 39.7776 37.1281 38.1621 37.2771 36.0319Z" fill="white"/>
<path d="M55.2031 36.0345C55.3588 33.7654 57.401 32.6173 60.4186 32.5089C63.4361 32.4006 65.7052 34.0533 65.4986 36.4747C65.292 38.8962 62.6368 39.9292 60.2865 39.8614C57.9361 39.7937 55.0507 38.1647 55.2031 36.0345Z" fill="white"/>
<path d="M41.6561 36.1087C41.7374 37.8732 42.6349 39.4378 44.4942 39.3396C46.3534 39.2414 47.7251 38.3608 47.8233 36.2069C47.9215 34.053 45.8658 33.0742 44.887 33.0742C43.9083 33.0742 41.5613 34.053 41.6561 36.1087Z" fill="#914E37"/>
<path d="M59.2833 36.1087C59.3679 37.8732 60.2654 39.4378 62.1247 39.3396C63.984 39.2414 65.3556 38.3608 65.4538 36.2069C65.552 34.053 63.4963 33.0742 62.5175 33.0742C61.5388 33.0742 59.185 34.053 59.2833 36.1087Z" fill="#914E37"/>
<path d="M28.5361 44.3355C28.15 43.2552 25.1494 40.3697 25.1494 39.3402C25.1494 38.3106 26.3246 36.6985 27.4998 36.8442C28.675 36.9898 29.9483 40.8201 29.8501 41.9852C29.7519 43.1502 31.1743 44.1899 31.7602 45.0704C32.3461 45.951 38.5336 55.0578 45.1275 58.878C51.7214 62.6981 56.5846 63.8733 59.084 63.8733C61.5834 63.8733 63.6357 62.2545 64.9599 56.382C66.1317 56.382 67.4559 56.0873 67.1613 56.8222C66.8666 57.5571 65.5458 62.2409 65.1056 63.284C66.8666 63.5787 72.5969 63.1384 75.3875 60.0531C78.1782 56.9679 81.2804 55.2034 83.6206 45.6563C83.6206 45.3651 83.9152 45.0704 84.2065 44.1899C84.4977 43.3093 84.9414 41.3959 84.9414 41.3959C84.9414 41.3959 82.1846 40.285 82.3878 37.6705C82.591 35.056 84.6671 33.1899 86.8515 33.4642C89.0359 33.7386 91.1119 35.8146 90.5226 38.165C89.9334 40.5153 88.6159 41.1046 86.8515 41.5517C86.7058 42.8725 86.4112 45.6631 86.1166 46.6926C85.8219 47.7222 82.2998 57.4149 78.6252 60.6458C74.9506 63.8767 69.664 67.6901 56.5914 65.6344C51.3048 64.7539 43.3833 61.2317 41.7577 59.4638C40.1321 57.696 30.0059 48.447 28.5361 44.3355Z" fill="white"/>
<path d="M27.3604 56.0859C28.5356 56.8208 29.4161 58.2873 35.7323 57.996C35.292 61.5216 35.1464 68.278 35.1464 68.278C35.1464 68.278 37.6424 70.4794 37.2021 71.3633C36.7618 72.2472 27.2148 71.0686 27.0658 69.5988C26.9167 68.129 27.3604 56.0859 27.3604 56.0859Z" fill="#EFB58E"/>
<path d="M17.5187 35.522C19.4965 35.7896 21.7792 39.3388 18.9885 41.9838C17.0784 43.159 14.8737 43.5993 13.6985 42.7188C17.0852 44.1886 20.455 46.8302 19.4288 49.1806C18.4026 51.5309 13.2582 53.1464 10.9079 50.0611C10.9079 48.8859 12.6723 48.5947 12.6723 48.5947C12.6723 48.5947 6.50181 49.0349 5.47225 47.7141C4.4427 46.3933 2.68162 43.5993 5.181 41.2489C7.68037 38.8986 14.2878 35.0784 17.5187 35.522Z" fill="#EFB58E"/>
<path d="M71.7702 29.3887C71.5874 32.3927 71.5501 35.3357 71.4621 38.3329C71.5128 39.4031 73.87 38.7054 74.483 38.4345C77.9746 37.1239 80.64 34.5635 83.2884 32.0574C83.9996 31.4037 84.9817 31.6408 85.8284 31.4342C86.8444 31.1768 87.8604 30.8415 88.9373 31.0041C90.2311 31.2073 88.2973 32.4638 89.8958 32.4773C90.1362 32.5146 90.3801 32.5349 90.6205 32.5755C91.518 32.7212 91.1929 33.639 90.6205 34.025C89.9432 34.533 91.1184 36.2365 91.0777 37.0731C91.255 38.0718 91.0543 39.1007 90.5146 39.9596C89.975 40.8185 89.1351 41.4459 88.1584 41.7196C86.8037 42.0379 86.9765 43.3046 86.78 44.3612C86.4075 50.0542 83.3324 55.246 80.132 59.8417C76.5963 64.5831 70.2428 66.4661 64.5532 66.8183C62.7955 66.8183 61.0378 66.7066 59.2869 66.5982C58.1422 66.5271 58.0914 66.5609 58.0474 67.6887C57.8916 68.7995 58.9584 69.3109 59.4427 70.161C61.136 73.5477 51.6533 71.2413 50.2343 70.8383C47.8636 70.1305 49.0388 66.5575 48.8796 64.6441C48.9154 64.4665 48.881 64.2821 48.7838 64.1293C48.6866 63.9765 48.534 63.8673 48.3581 63.8245C45.4319 62.6112 42.6948 60.9849 40.23 58.9951C40.0031 58.8142 39.7242 58.7109 39.4342 58.7004C38.364 58.7512 37.2904 58.7986 36.227 58.9409C35.8578 61.8196 35.851 64.6983 35.6851 67.6006C35.6718 67.7686 35.6976 67.9373 35.7605 68.0936C35.8234 68.2499 35.9216 68.3895 36.0475 68.5015C36.8908 69.2906 39.4037 71.4344 37.2226 72.0237C34.1262 72.228 31.0176 71.9015 28.0312 71.0585C25.3862 70.4285 26.6494 66.4424 26.436 64.4138C26.4868 62.1989 26.5647 59.984 26.6393 57.7725C26.6663 56.936 26.2464 56.472 25.5352 56.0791C23.5709 54.9886 21.6473 53.8236 19.7067 52.6925C18.6196 52.0896 17.9795 51.5545 16.6926 52.0558C15.3853 52.347 13.9256 52.7331 12.6861 52.0016C11.6855 51.465 10.8212 50.7061 10.1596 49.7833C9.73291 48.4083 7.2674 50.2168 4.24986 47.3517C3.96479 47.0888 3.73454 46.7721 3.57237 46.4199C3.4102 46.0677 3.31933 45.6868 3.30498 45.2993C3.07468 39.7519 9.36376 37.283 13.6953 35.6202C13.8237 35.5928 13.9388 35.5219 14.0209 35.4194C14.1029 35.317 14.1471 35.1893 14.1458 35.058C14.3219 32.711 14.5285 30.3674 14.7046 28.0204C14.6538 27.4041 14.9213 26.5405 14.3896 26.0968C9.77355 23.3874 7.61623 23.0996 13.2957 19.2726C16.7603 16.9324 20.1267 14.4364 23.7064 12.3062C24.3532 11.5713 23.7267 10.1252 24.6885 9.55961C30.2461 6.60642 28.5832 9.14305 31.0047 8.15075C32.549 7.17877 34.1374 6.27452 35.6851 5.30254C37.2328 4.33056 39.0718 4.91307 40.694 5.41092C45.1577 6.80284 49.4655 8.61134 53.8039 10.3453C55.6191 11.0396 56.9264 12.5873 58.5994 13.5627C60.9599 15.2391 63.3001 16.8986 65.6607 18.5513C69.2167 20.9558 72.7117 23.4416 76.0713 26.1103C76.9688 26.8046 77.3718 27.7156 77.0873 28.8637C76.8774 30.3674 72.9319 29.2159 71.7702 29.3887ZM15.8256 35.0614C19.1818 34.086 20.8006 35.9521 20.7904 39.2338C20.8582 41.7738 19.5238 42.8033 17.2717 43.6365C20.0386 45.1368 21.7455 48.1983 19.3037 50.779C22.5888 52.7737 25.9179 54.6432 29.2639 56.5363C32.0884 57.6743 35.36 57.4643 38.3436 57.2746C35.7985 54.7517 33.4407 52.0464 31.2892 49.1805C30.9505 51.3683 31.1435 53.6272 30.5678 55.7608H30.3985C30.0158 55.2189 30.0293 54.5653 30.0293 53.9252C30.0463 51.9237 30.0869 49.9221 30.0937 47.924C29.8769 46.6641 28.8508 45.6651 28.2649 44.5373C27.5198 43.4129 26.3412 42.6712 25.6944 41.4351C24.8951 40.182 24.4548 38.2889 25.542 37.0968C25.8118 36.8478 26.1357 36.665 26.4883 36.5626C26.8408 36.4602 27.2123 36.4411 27.5735 36.5068C27.9347 36.5725 28.2757 36.7211 28.5696 36.941C28.8635 37.161 29.1024 37.4461 29.2673 37.7741C29.5648 38.5338 29.8236 39.3081 30.0429 40.094C30.4628 37.8588 29.8193 35.3865 30.5543 33.2359C31.953 31.6747 30.8692 41.8991 31.025 42.6882C32.1629 45.6922 41.5847 57.7318 44.8427 56.9665C48.1379 56.7599 51.423 56.3941 54.7284 56.323C59.253 56.1333 63.7709 55.6219 68.3057 55.5881C69.3386 55.5508 69.5689 55.3375 69.5994 54.3181C69.649 50.8411 69.8127 47.3697 70.0904 43.904C70.253 38.3464 70.3038 32.7855 70.5544 27.228C70.5716 27.0714 70.5461 26.9132 70.4805 26.7701C70.4149 26.6269 70.3117 26.5043 70.1819 26.4151C68.055 24.925 65.9384 23.4213 63.8115 21.9278C60.689 19.7355 57.5653 17.5454 54.4406 15.3576C54.3851 15.3003 54.3182 15.2553 54.2443 15.2254C54.1703 15.1954 54.091 15.1813 54.0112 15.1839C53.9315 15.1864 53.8532 15.2056 53.7813 15.2402C53.7095 15.2748 53.6456 15.324 53.5939 15.3847C50.6373 18.2261 46.9086 20.0753 43.6303 22.4968C40.9514 24.4238 38.3335 26.4389 35.6411 28.3456C32.4576 30.2861 28.9219 33.9438 25.0204 31.5663C22.3111 30.0728 19.4866 28.7181 16.7095 27.316C16.1371 26.9604 16.066 27.4616 16.0525 27.9425C15.9475 30.3302 15.7748 32.6704 15.8256 35.0614ZM31.8141 9.01774C32.698 9.56299 33.6869 9.82038 33.5278 11.0193C33.3855 13.0152 33.2557 15.0122 33.1383 17.0103C33.1174 17.4381 32.9928 17.8543 32.775 18.2231C32.5573 18.5919 32.2531 18.9021 31.8886 19.127C30.1953 20.2277 28.3157 21.9854 26.2769 20.6104C25.3997 19.9364 23.7064 19.7197 23.7064 18.3718C23.7064 17.0239 23.7978 15.7505 23.8757 14.4466C23.8757 13.8844 23.7572 13.8302 23.2932 14.1282C20.3434 15.9909 17.4783 17.9891 14.5556 19.8856C13.522 20.5545 12.5516 21.3162 11.6565 22.1615C10.6405 23.0589 12.8724 23.6177 13.4075 24.0716C17.8102 26.3102 22.2637 28.5081 26.6359 30.8449C27.7332 31.4274 28.8033 31.4715 29.8227 30.784C33.8461 28.0972 37.7679 25.2863 41.5881 22.3511C44.46 20.2717 47.3455 18.2363 50.2478 16.1772C51.6465 15.1815 53.0385 14.1723 54.4406 13.18C55.1179 12.5839 53.8614 11.7982 53.3602 11.5645C48.4597 9.54945 43.5693 7.46664 38.5265 5.82409C37.0296 5.26868 33.4059 8.21848 31.8141 9.01774ZM71.1979 46.9757C70.9879 49.6309 70.9405 52.3436 70.805 55.0157C70.805 56.4212 69.5147 56.7091 68.3632 56.8242C68.248 56.8294 68.1379 56.8728 68.0502 56.9477C67.9624 57.0225 67.9022 57.1244 67.8789 57.2374C67.3945 58.98 66.7658 60.6792 65.9993 62.3174C65.1696 63.6721 68.6172 62.3784 69.1896 62.4461C70.8753 62.1772 72.4886 61.5676 73.9309 60.6546C78.9094 56.9902 81.8219 51.138 83.2308 45.2451C83.3121 44.9065 83.4103 44.622 83.7896 44.517C84.1926 43.9446 84.1452 43.0506 84.3484 42.3664C84.4602 41.7568 84.4466 41.767 83.8878 41.5401C83.7874 41.4855 83.6701 41.4705 83.5591 41.4981C83.4482 41.5256 83.3515 41.5938 83.2884 41.6891C81.8998 42.9591 80.2403 43.9582 78.6825 44.9911C76.4202 46.4305 73.8293 46.5185 71.1979 46.9757ZM11.8868 50.1931L11.8394 50.2947C12.405 50.7824 13.2449 50.972 13.929 51.2734C14.7452 51.5715 15.5241 51.2328 16.32 51.1007C18.3012 50.8772 20.1063 48.1509 18.6907 46.4779C17.292 44.5509 14.735 44.2935 13.0383 42.8067C12.4626 41.8483 14.0069 42.2174 14.4404 42.468C15.514 43.0133 16.6824 42.5425 17.7357 42.1937C20.1978 41.662 20.6719 36.2806 17.756 36.2162C13.3228 36.5549 8.62885 38.1195 5.77726 41.7501C1.47617 47.9883 9.62115 48.8113 13.9358 47.25C15.7138 46.5727 14.7723 49.1297 13.6615 49.3498C13.4447 49.4277 13.2415 49.5394 12.9841 49.6614C13.2179 49.8362 13.4206 50.0491 13.5836 50.2913C13.0519 50.5521 12.4389 50.2744 11.8868 50.1931ZM62.4873 65.8565C75.7936 65.7515 81.7914 58.9002 85.5168 46.7996C85.8047 45.8446 85.5845 45.6041 84.5787 45.6651C83.8133 45.6651 83.9555 46.6201 83.7591 47.1417C82.0929 53.2919 78.7062 59.7063 72.7321 62.5545C71.6551 63.0218 63.6557 65.5246 64.4753 62.8932C65.3299 61.2644 65.9979 59.5443 66.4667 57.7657C66.8426 56.8615 65.7893 56.6142 65.4507 57.427C64.2924 60.2312 63.5338 64.3257 59.7373 64.3291C49.2149 64.1733 40.0336 56.9529 33.8631 48.94C32.4203 47.0672 31.1165 45.0893 29.755 43.1555C29.5315 42.8372 29.291 42.7491 29.0065 42.9151C27.3911 43.1318 34.5167 51.4699 35.1432 52.3267C41.6321 60.6444 51.9005 65.8667 62.4873 65.8565ZM36.1728 70.6859L36.2574 70.503C35.6241 69.6801 34.3778 69.1009 34.344 67.9698C34.3101 66.8386 34.3744 65.7007 34.449 64.5831C34.5709 62.7645 34.7334 60.9458 34.8892 59.1272C34.9095 58.8799 34.8181 58.7885 34.5844 58.7648C32.6337 58.5446 30.5712 58.9849 28.7796 58.0028C27.6078 57.295 27.8551 64.6915 27.6891 65.5788C27.7975 66.3577 27.4521 69.7715 28.3665 69.758C30.9365 70.2946 33.5486 70.6051 36.1728 70.6859ZM71.479 40.2057C71.4553 41.7094 71.3469 43.711 71.313 45.3772C71.3266 45.434 71.3547 45.4862 71.3944 45.529C71.4342 45.5717 71.4843 45.6034 71.5399 45.6211C74.0623 45.7285 76.5534 45.0298 78.652 43.6263C79.8238 42.8237 80.9448 41.9329 82.0725 41.0863C82.6821 40.6223 82.6517 40.5952 82.2961 39.9246C80.6434 37.1747 82.7126 34.2689 85.1883 32.9616C83.9488 32.3757 82.8176 33.8557 82.0692 34.6956C79.4682 37.8791 75.6717 40.199 71.479 40.1922V40.2057ZM29.1996 19.1744L29.3655 19.2421C30.0971 18.9035 30.7405 18.3989 31.4416 18.0026C31.5758 17.9381 31.6906 17.8393 31.7745 17.7162C31.8583 17.5931 31.9082 17.4501 31.9191 17.3016C32.0715 15.6726 32.2273 14.047 32.3763 12.4146C32.3763 12.0522 32.4136 11.2902 31.831 11.5815C30.517 12.1064 29.0811 12.7736 27.7061 12.0624C27.0626 11.7745 26.4293 11.4731 25.7892 11.1751C25.2405 10.9211 25.1119 10.9651 25.0746 11.5815C24.9324 13.7117 24.7359 15.8419 24.7359 17.9789C24.8477 18.7816 26.602 19.1981 27.2353 19.74C27.9702 20.1633 28.1294 20.0787 28.1666 19.2184C28.2445 17.3388 28.3326 15.4626 28.4206 13.5864C28.4206 13.2477 28.485 12.7702 28.8846 12.7262C29.8329 12.7837 28.9964 18.111 29.1996 19.1744ZM75.3838 28.3185C75.5058 28.2473 75.8343 28.1593 75.8614 28.0171C75.8539 27.8301 75.799 27.648 75.7018 27.4881C75.6047 27.3281 75.4684 27.1955 75.3059 27.1026C72.6677 25.1858 70.0532 23.235 67.4556 21.2742C63.7731 18.7229 60.0817 16.1885 56.3811 13.671C55.7309 13.2172 55.6395 13.4509 55.2364 13.942C55.196 13.9841 55.1662 14.0353 55.1496 14.0913C55.133 14.1473 55.1301 14.2064 55.141 14.2638C55.152 14.3211 55.1765 14.3751 55.2125 14.421C55.2486 14.4669 55.2951 14.5036 55.3482 14.5279C59.3411 17.4066 63.4762 20.0583 67.4929 22.9201C68.8475 24.2341 72.2986 25.2637 71.8955 27.4481C71.6822 28.183 74.6557 28.078 75.3838 28.3219V28.3185ZM58.2099 70.6148L58.2709 70.4793C57.7324 69.636 56.6961 69.0806 56.7672 67.9732C56.6555 67.455 57.0517 66.5542 56.4285 66.3171C54.5151 65.826 52.6084 65.318 50.6915 64.8371C49.794 64.8574 50.3528 67.5465 50.258 68.2475C50.3223 69.6767 50.5967 69.9646 52.0225 70.1407C54.0782 70.4421 56.1271 70.7367 58.2099 70.6148ZM50.5052 57.935C50.6272 58.7411 50.1937 60.9831 50.8168 61.2337C52.7914 62.0418 54.8306 62.6819 56.9128 63.1472V57.5523L50.5052 57.935ZM58.4978 57.3356C58.3996 59.2254 58.2743 61.0169 58.2472 62.883C58.2472 63.0049 58.3522 63.2217 58.447 63.2217C61.9251 64.3054 63.3205 60.2617 64.0994 57.6777C64.1942 57.1697 64.1197 57.0342 63.6117 57.0511C61.9082 57.1459 60.1945 57.1527 58.4978 57.3356ZM86.4989 40.9237L86.5159 40.8424C92.4087 41.1066 90.5359 32.1082 85.2052 34.0691C81.5781 36.0164 82.1437 40.6968 86.4989 40.9237ZM29.142 41.4554C28.932 40.3006 28.6577 36.5752 26.707 37.6928C24.9527 39.1525 26.8695 41.0321 27.8449 42.3326C28.292 42.9456 29.0777 42.0345 29.142 41.4554ZM26.1482 10.0371V10.2065C28.3969 11.3952 29.2605 11.6153 31.5432 10.3724C31.5432 10.3724 31.5432 10.325 31.5432 10.2471C29.7347 9.43091 27.9939 8.88904 26.1482 10.0371ZM48.8762 58.4295C47.9347 58.5209 46.9052 58.2263 46.0788 58.5751C46.8307 59.3608 47.9314 59.6623 48.8762 60.2685V58.4295ZM86.2483 42.6916C86.2246 42.3326 86.2483 42.0752 85.9097 42.0142C85.4931 41.9296 85.2323 42.0142 85.1375 42.3901C85.1375 42.9185 84.389 44.5204 85.1375 44.6321C86.1332 44.964 86.0011 43.2165 86.2483 42.6916ZM87.7927 31.905C87.4269 32.1353 86.7225 32.1251 86.7191 32.5823C86.9528 32.6636 87.244 32.8397 87.4235 32.7618C87.664 32.6602 87.8197 32.3622 87.9958 32.1319C88.006 32.1183 87.8672 31.9896 87.7927 31.905Z" fill="black"/>
<path d="M60.5804 40.412C58.0302 40.5881 54.6198 39.396 54.6401 36.3818C54.1152 30.7802 63.5878 30.726 65.7011 34.5428C67.1472 37.8923 63.9501 40.9403 60.5804 40.412ZM62.162 38.7491C65.9584 38.5086 65.4742 33.642 61.8978 33.6149C59.1173 33.5946 59.0462 38.8947 62.162 38.7491ZM60.0724 39.3248C58.2165 37.2522 57.9117 35.2202 59.815 33.073C57.783 32.67 55.751 33.8147 55.6561 35.9754C55.5376 37.0253 55.9068 38.0074 56.9668 38.5053C57.9862 38.9218 58.9277 39.4738 60.0724 39.3248Z" fill="black"/>
<path d="M42.5969 40.3304C33.341 40.2187 35.5322 29.4185 45.5094 32.3988C51.0941 34.5968 47.8835 41.0383 42.5969 40.3304ZM42.2277 36.2664C42.2259 36.7059 42.3429 37.1377 42.5664 37.5161C42.7419 37.8044 42.9746 38.0538 43.2501 38.2489C43.5256 38.444 43.838 38.5807 44.1683 38.6506C44.6471 38.7487 45.1436 38.7137 45.6039 38.5495C46.0642 38.3854 46.4708 38.0982 46.7794 37.7193C47.0762 37.3313 47.2578 36.8676 47.3033 36.3813C47.3488 35.895 47.2565 35.4056 47.0368 34.9693C45.9565 32.9068 43.027 33.3979 42.3666 35.4976C42.284 35.7425 42.2372 35.998 42.2277 36.2563V36.2664ZM42.1735 39.1756C41.4843 38.4028 41.0895 37.4118 41.0586 36.3768C41.0276 35.3418 41.3624 34.329 42.0042 33.5164C42.248 33.1981 42.1938 33.0592 41.7942 33.0355C36.2739 32.9712 36.6735 39.5176 42.1735 39.1654V39.1756Z" fill="black"/>
<path d="M51.9991 49.7089C43.6035 49.2382 47.6675 39.7961 47.8064 45.2114C47.6879 47.4466 50.2448 48.4457 52.1143 48.5033C54.5256 48.5439 55.5484 46.0581 55.8396 44.0125C55.8458 43.9459 55.8658 43.8814 55.8985 43.823C55.9312 43.7647 55.9757 43.7139 56.0293 43.6739C56.3036 43.4707 56.5915 43.3894 56.7066 43.8703C56.964 46.6982 55.2029 49.8986 51.9991 49.7089Z" fill="black"/>
<path d="M61.0923 27.7383C62.0778 27.8128 63.3241 27.9008 64.0658 28.5104C64.1451 28.5766 64.2006 28.6669 64.2239 28.7676C64.2472 28.8682 64.2369 28.9737 64.1948 29.068C64.1526 29.1623 64.0808 29.2402 63.9903 29.29C63.8997 29.3397 63.7955 29.3585 63.6932 29.3436C63.3733 29.2783 63.0568 29.1969 62.745 29.0997C62.2704 28.9177 61.7619 28.8413 61.2548 28.8759C60.7477 28.9104 60.2542 29.0549 59.8087 29.2995C59.4497 29.5197 58.6911 29.6619 58.454 29.2725C58.3863 28.0092 60.1542 27.7688 61.0923 27.7383Z" fill="black"/>
<path d="M42.2318 27.8972C42.794 27.7617 46.2484 28.6118 44.8802 29.3263C43.7761 29.4042 42.7364 28.7811 41.6425 29.0656C36.9655 30.9858 39.4446 27.7685 42.2318 27.8972Z" fill="black"/>
<path d="M86.57 39.9618C82.9361 39.9618 83.478 34.8818 86.6344 34.7734C89.8653 34.8818 90.2751 40.077 86.57 39.9618ZM88.0839 37.52C88.0839 35.3322 85.0799 35.742 85.0122 37.7368C85.1476 39.3759 88.2566 39.3184 88.0839 37.5031V37.52Z" fill="black"/>
<path d="M94.4883 37.8688L100.215 33.7574C100.215 33.7574 99.6293 22.1546 100.51 21.125C101.39 20.0955 103.006 18.1854 105.929 18.3344C108.851 18.4834 157.193 18.48 158.663 18.48C160.132 18.48 163.949 19.9499 163.804 26.7063C163.658 33.4627 163.655 51.971 163.363 54.1757C163.072 56.3804 162.188 59.1711 157.487 58.7308C152.787 58.2905 106.663 58.7308 105.332 58.7308C104.001 58.7308 100.046 57.9959 100.046 54.0301C100.046 50.0643 99.4566 43.1588 99.7512 41.9836C98.4575 40.8085 94.4883 38.4581 94.4883 37.8688Z" fill="white"/>
<path d="M131.809 17.6344C141.177 17.5824 150.547 17.6005 159.919 17.6886C163.516 17.6886 164.393 21.7187 164.498 24.6177C164.694 28.553 164.786 32.485 164.603 36.4237C164.491 42.4012 164.315 48.3787 164.135 54.3731C164.186 59.0129 159.824 59.5853 156.166 59.3177C144.933 59.2838 133.696 59.2567 122.469 59.5886C115.882 59.5886 109.22 59.8901 102.714 58.6844C100.808 58.3254 99.8086 57.1739 99.5817 55.2605C99.2024 52.077 99.3107 48.8833 99.348 45.6897C99.1685 44.5382 99.9779 42.4249 98.8197 41.7679C91.2301 37.6802 92.6356 38.0866 99.1109 33.7211C99.184 33.6605 99.2442 33.5858 99.2879 33.5014C99.3315 33.4171 99.3577 33.3248 99.3649 33.2301C99.4598 31.6519 99.5512 30.0703 99.5952 28.4887C99.9339 24.1436 98.2405 18.4302 104.289 17.8037C113.454 17.526 122.635 17.6852 131.809 17.6344ZM118.168 18.8637C114.246 18.7994 110.317 18.8197 106.392 18.8874C103.995 18.7757 101.261 19.6732 100.923 22.5484C100.533 26.1756 100.943 29.8163 100.791 33.4536C100.747 35.1469 97.1162 36.5626 95.8326 37.7411C94.2984 38.6759 101.102 40.061 100.557 42.0693C100.581 58.9418 99.0534 58.1696 116.271 58.0985C126.397 58.1595 136.93 57.9596 145.586 57.9427C148.99 58.0917 152.404 57.9834 155.814 57.8919C158.104 57.6108 161.626 58.3254 162.367 55.4366C163.119 46.1435 163.56 36.7691 163.197 27.4321C162.689 20.9973 163.485 18.8231 156.031 18.857C144.025 18.8841 130.086 19.3717 118.168 18.8637Z" fill="black"/>
<path d="M109.474 28.9413V32.328H114.673V28.9413H113.274V27.4512H117.856V28.9413H116.475V37.9296H117.856V39.4231H113.274V37.9296H114.673V33.8181H109.474V37.9296H110.886V39.4231H106.314V37.9296H107.669V28.9413H106.314V27.4512H110.886V28.9413H109.474Z" fill="#E53C3C"/>
<path d="M131.159 33.3945C131.181 34.5292 130.903 35.6494 130.353 36.6424C129.836 37.5712 129.064 38.3327 128.128 38.8369C127.134 39.363 126.022 39.6287 124.897 39.6091C123.786 39.6294 122.689 39.3523 121.721 38.8065C120.803 38.2801 120.051 37.5069 119.55 36.5746C119.023 35.5875 118.757 34.4827 118.774 33.364C118.756 32.2598 119.028 31.1701 119.563 30.2043C120.076 29.2934 120.831 28.5421 121.744 28.0334C122.711 27.5012 123.801 27.2315 124.904 27.2511C126.043 27.2304 127.168 27.5083 128.166 28.0571C129.089 28.5739 129.852 29.3372 130.367 30.2618C130.899 31.2193 131.172 32.2991 131.159 33.3945ZM124.969 38.014C125.749 38.0258 126.515 37.8028 127.167 37.3739C127.807 36.9522 128.324 36.3678 128.663 35.6805C129.015 34.9747 129.196 34.1964 129.192 33.4081C129.198 32.6126 129.006 31.8282 128.633 31.1254C128.277 30.4423 127.744 29.8678 127.089 29.4626C126.42 29.0528 125.648 28.8414 124.864 28.853C124.105 28.8403 123.358 29.046 122.713 29.4456C122.086 29.842 121.585 30.408 121.267 31.078C120.918 31.7974 120.742 32.5883 120.752 33.3878C120.738 34.2181 120.914 35.0406 121.267 35.7923C121.585 36.4721 122.096 37.0433 122.737 37.4348C123.412 37.8332 124.185 38.0338 124.969 38.014Z" fill="#E53C3C"/>
<path d="M142.24 27.4512H146.385V28.9413H144.95V37.9296H146.396V39.4231H141.901V37.9296H143.314V28.9413L139.192 39.5383H138.833L134.769 28.9413V37.9296H136.087V39.4231H131.819V37.9296H133.272V28.9413H131.819V27.4512H135.921L139.074 35.6436L142.24 27.4512Z" fill="#E53C3C"/>
<path d="M156.6 30.9428V28.9413H151.479V32.5109H155.933V34.001H151.479V37.9296H156.6V35.7486H158.077V39.4231H148.13V37.9296H149.671V28.9413H148.13V27.4512H158.077V30.9428H156.6Z" fill="#E53C3C"/>
<path d="M114.47 46.015C114.47 47.4239 114.045 48.4817 113.196 49.1884C112.348 49.8951 111.079 50.2495 109.39 50.2518H106.342V49.2358H107.442V43.0551H106.342V42.0391H109.468C111.152 42.0391 112.407 42.3574 113.234 42.9941C114.06 43.6308 114.472 44.6378 114.47 46.015ZM113.115 46.0726C113.137 45.4865 113.011 44.9043 112.749 44.3793C112.486 43.9251 112.073 43.5767 111.581 43.3937C110.905 43.1491 110.189 43.0342 109.471 43.0551H108.679V49.2256H109.461C110.728 49.2256 111.653 48.9716 112.238 48.4636C112.823 47.9556 113.115 47.1541 113.115 46.0591V46.0726Z" fill="#414042"/>
<path d="M123.865 46.1107C123.878 46.8916 123.687 47.6624 123.309 48.3459C122.953 48.9839 122.422 49.5068 121.778 49.853C121.095 50.2161 120.33 50.3991 119.557 50.3847C118.793 50.3989 118.04 50.2083 117.376 49.8327C116.745 49.4715 116.23 48.9397 115.889 48.2985C115.527 47.6194 115.345 46.8596 115.357 46.0904C115.343 45.3317 115.53 44.5827 115.899 43.9195C116.251 43.2931 116.769 42.7761 117.396 42.426C118.061 42.0597 118.811 41.8741 119.57 41.8875C120.353 41.8727 121.127 42.0643 121.812 42.4429C122.448 42.7972 122.972 43.3214 123.326 43.9568C123.69 44.6157 123.875 45.3581 123.865 46.1107ZM119.607 49.2874C120.144 49.2958 120.67 49.1424 121.118 48.8472C121.555 48.553 121.906 48.1473 122.134 47.672C122.375 47.1869 122.499 46.6522 122.496 46.1107C122.5 45.5641 122.367 45.0251 122.11 44.5427C121.866 44.0739 121.5 43.6797 121.05 43.4014C120.591 43.1213 120.061 42.9769 119.523 42.9848C119.007 42.9726 118.498 43.1104 118.059 43.3815C117.619 43.6526 117.268 44.0454 117.047 44.5122C116.813 45.0085 116.698 45.5521 116.708 46.1006C116.693 46.6701 116.809 47.2355 117.047 47.7533C117.267 48.2222 117.62 48.6157 118.063 48.8844C118.529 49.1623 119.065 49.3021 119.607 49.2874Z" fill="#414042"/>
<path d="M131.586 42.9325V42.0282H132.632V44.6631H131.562C131.314 44.1577 130.931 43.7311 130.455 43.4303C129.993 43.1367 129.457 42.9827 128.91 42.9866C128.395 42.9783 127.889 43.1284 127.461 43.4168C127.033 43.703 126.689 44.0982 126.465 44.5615C126.225 45.045 126.1 45.5776 126.1 46.1176C126.1 46.6576 126.225 47.1903 126.465 47.6738C126.699 48.1387 127.049 48.5353 127.481 48.8253C127.912 49.1123 128.42 49.2633 128.937 49.2588C129.572 49.2666 130.19 49.0535 130.685 48.656C131.218 48.2091 131.604 47.6119 131.792 46.9423L132.842 47.5011C132.597 48.3611 132.067 49.1122 131.339 49.6313C130.595 50.1421 129.71 50.4063 128.809 50.3866C128.062 50.4002 127.326 50.203 126.685 49.8176C126.074 49.447 125.575 48.9166 125.243 48.2834C124.896 47.6334 124.718 46.9068 124.724 46.1701C124.71 45.3947 124.892 44.6282 125.253 43.9417C125.586 43.3111 126.089 42.7867 126.706 42.4278C127.353 42.0618 128.086 41.8759 128.829 41.8894C129.335 41.885 129.837 41.9758 130.309 42.1569C130.777 42.338 131.209 42.6006 131.586 42.9325Z" fill="#414042"/>
<path d="M139.646 45.0415V43.0637H137.953V49.2342H139.02V50.2502H135.66V49.2342H136.706V43.0535H135.013V45.0415H133.997V42.0273H140.652V45.0415H139.646Z" fill="#414042"/>
<path d="M150.084 46.1107C150.099 46.8913 149.909 47.6621 149.532 48.3459C149.175 48.9832 148.644 49.5059 148.001 49.853C147.318 50.2157 146.553 50.3986 145.779 50.3847C145.015 50.3994 144.261 50.2088 143.595 49.8327C142.966 49.4704 142.451 48.9389 142.108 48.2985C141.742 47.6206 141.555 46.8608 141.563 46.0904C141.551 45.3318 141.738 44.5833 142.105 43.9195C142.458 43.2929 142.977 42.7761 143.605 42.426C144.269 42.0601 145.018 41.8745 145.776 41.8875C146.559 41.8727 147.332 42.0643 148.018 42.4429C148.655 42.7953 149.18 43.32 149.532 43.9568C149.9 44.6144 150.091 45.3569 150.084 46.1107ZM145.827 49.2874C146.364 49.2963 146.892 49.1428 147.341 48.8472C147.778 48.5532 148.129 48.1474 148.357 47.672C148.6 47.1877 148.725 46.6527 148.723 46.1107C148.726 45.5641 148.593 45.0251 148.336 44.5427C148.091 44.0746 147.725 43.6806 147.276 43.4014C146.815 43.1214 146.285 42.977 145.746 42.9848C145.23 42.9733 144.722 43.1114 144.283 43.3825C143.845 43.6535 143.494 44.0459 143.273 44.5122C143.038 45.008 142.922 45.5519 142.935 46.1006C142.919 46.6702 143.035 47.2358 143.273 47.7533C143.493 48.2222 143.847 48.6157 144.289 48.8844C144.753 49.1616 145.287 49.3013 145.827 49.2874Z" fill="#414042"/>
<path d="M157.402 44.1828C157.418 44.6648 157.26 45.1363 156.955 45.5104C156.63 45.886 156.191 46.1462 155.705 46.2521L157.155 49.2256H158.171V50.2416H156.325L154.51 46.4113H153.359V49.2155H154.405V50.2315H150.991V49.2155H152.102V43.0551H150.991V42.0391H154.405C155.465 42.0391 156.227 42.2118 156.698 42.5572C156.939 42.7502 157.129 42.9992 157.252 43.2825C157.375 43.5659 157.426 43.875 157.402 44.1828ZM156.125 44.1625C156.139 44.0034 156.113 43.8434 156.05 43.6964C155.988 43.5495 155.89 43.42 155.766 43.3192C155.422 43.1163 155.024 43.0241 154.625 43.0551H153.348V45.3817H154.544C154.959 45.4132 155.374 45.3162 155.733 45.104C155.87 44.991 155.977 44.8461 156.046 44.682C156.114 44.5179 156.142 44.3396 156.125 44.1625Z" fill="#414042"/>
</svg>
