<svg width="19" height="12" viewBox="0 0 19 12" fill="none" xmlns="http://www.w3.org/2000/svg">
<path d="M2.15234 5.02344C3.09291 5.41959 4.03348 5.81574 4.94654 6.2003C4.878 6.63947 4.78929 7.05184 4.75361 7.4687C4.68664 8.25075 4.82091 9.00866 5.10924 9.7385C5.1893 9.94075 5.18783 10.1326 5.03115 10.2962C4.97341 10.3564 4.89532 10.4047 4.81775 10.4373C4.20302 10.6919 3.58707 10.9428 2.9702 11.1914C2.65015 11.3204 2.3959 11.2063 2.26821 10.883C1.60421 9.20161 1.49643 7.48358 1.93374 5.73083C1.97768 5.55405 2.02891 5.37893 2.07677 5.20286C2.10196 5.14305 2.12715 5.08324 2.15234 5.02344Z" fill="#FF3338"/>
<path d="M16.3008 5.02344C15.3654 5.43165 14.43 5.83986 13.5219 6.23614C13.5961 6.67439 13.6901 7.08558 13.7312 7.50195C13.8082 8.28308 13.6837 9.04264 13.4048 9.77613C13.3273 9.9794 13.3312 10.1712 13.49 10.3328C13.5485 10.3922 13.6272 10.4395 13.7052 10.4711C14.3232 10.7178 14.9423 10.9607 15.5623 11.2014C15.884 11.3263 16.1368 11.2089 16.2603 10.884C16.9026 9.19421 16.9883 7.47494 16.5285 5.72796C16.4823 5.55176 16.4288 5.37731 16.3787 5.20187C16.3527 5.14239 16.3267 5.08292 16.3008 5.02344Z" fill="#17B518"/>
<path d="M2.34612 4.46003C2.52796 4.16763 2.69884 3.8678 2.89345 3.58407C3.71126 2.39249 4.77638 1.48535 6.07252 0.847786C6.09676 0.835932 6.1183 0.818243 6.13725 0.805569C6.52541 1.76429 6.90674 2.70466 7.29368 3.65958C6.36078 4.1525 5.62732 4.87073 5.10104 5.8316C4.15768 5.43428 3.21431 5.03695 2.27055 4.63945C2.29574 4.57965 2.32093 4.51984 2.34612 4.46003Z" fill="#FF9000"/>
<path d="M16.1952 4.67706C15.2393 5.06639 14.2998 5.44903 13.3494 5.83646C12.8566 4.90315 12.1341 4.17308 11.1884 3.6555C11.5859 2.71174 11.9812 1.77316 12.3809 0.824219C14.0943 1.6858 15.3613 2.97005 16.1952 4.67706Z" fill="#49E74A"/>
<path d="M6.55566 0.625853C8.35845 0.0270479 10.1623 0.0375712 11.9797 0.65797C11.5827 1.60053 11.1879 2.53791 10.7877 3.48805C9.76488 3.17695 8.73356 3.1679 7.71233 3.47151C7.32489 2.51778 6.94258 1.57749 6.55566 0.625853Z" fill="#FFFF00"/>
<path d="M10.2968 9.00207C9.88413 9.4107 9.26747 9.52627 8.729 9.29542C8.19339 9.06571 7.82471 8.52239 7.87978 7.93541C7.94228 7.2691 8.03816 6.60365 8.16143 5.94562C8.37003 4.8313 8.61201 3.72298 8.83858 2.6118C8.87225 2.44572 8.9396 2.30704 9.10196 2.23028C9.37648 2.10073 9.67696 2.25396 9.74658 2.57128C9.88641 3.21105 10.0339 3.84996 10.1524 4.49401C10.3481 5.55953 10.5302 6.62734 10.7034 7.69657C10.7827 8.19138 10.6614 8.63853 10.2968 9.00207Z" fill="black"/>
</svg>
