<svg width="22" height="22" viewBox="0 0 22 22" fill="none" xmlns="http://www.w3.org/2000/svg">
<path d="M10.002 18.5875C10.2953 19.9562 9.94417 20.9667 8.98022 21.5915C8.09806 22.1634 6.95429 22.1323 6.10457 21.5139C5.1794 20.8398 4.87548 19.8018 5.23511 18.4937C4.4552 18.2434 3.86992 17.7596 3.5533 16.9882C3.34669 16.4847 3.31284 15.9615 3.44541 15.4361C3.6069 14.7959 3.97076 14.2938 4.5236 13.9278C5.07786 13.5604 5.6984 13.4871 6.37324 13.5259C6.33164 13.4003 6.30343 13.3016 6.26747 13.2064C4.8642 9.46273 3.4574 5.72256 2.0633 1.97746C1.97586 1.74193 1.86445 1.67071 1.62892 1.68905C1.3666 1.70949 1.10076 1.69962 0.837026 1.69187C0.362453 1.67776 -0.000704135 1.30685 1.02517e-06 0.847084C0.000706186 0.385204 0.361748 0.0142897 0.839142 0.00653289C1.40186 -0.00263419 1.96528 -0.00192903 2.52871 0.00723805C2.97507 0.0142897 3.22611 0.275904 3.3756 0.67714C4.11109 2.65229 4.85362 4.62533 5.59333 6.59908C6.42542 8.81963 7.26033 11.0395 8.08537 13.2628C8.1573 13.4561 8.24262 13.5259 8.45769 13.5252C11.7839 13.5167 15.1109 13.5195 18.4371 13.5195C18.5232 13.5195 18.6099 13.5195 18.7143 13.5195C19.1839 10.701 19.6507 7.90362 20.1225 5.0724C20.0033 5.0724 19.901 5.0724 19.7988 5.0724C15.7949 5.0724 11.7903 5.0724 7.78638 5.0717C7.67215 5.0717 7.55579 5.07664 7.44438 5.05548C7.01917 4.97439 6.72371 4.57879 6.76037 4.15288C6.79634 3.73613 7.13763 3.40893 7.56496 3.38496C7.64394 3.38072 7.72362 3.38355 7.8026 3.38355C12.176 3.38355 16.5501 3.38355 20.9235 3.38355C21.7182 3.38355 22.049 3.76715 21.9185 4.54988C21.372 7.84439 20.8234 11.1382 20.2741 14.4327C20.1866 14.958 19.8658 15.2091 19.2868 15.2091C14.8958 15.2098 10.5041 15.2091 6.11304 15.2098C5.9988 15.2098 5.88245 15.2034 5.77103 15.2218C5.34441 15.293 5.0419 15.6815 5.0701 16.111C5.0969 16.5256 5.43749 16.8655 5.85918 16.8958C5.94662 16.9022 6.03476 16.8986 6.12291 16.8986C8.28775 16.8986 10.4526 16.8965 12.6174 16.9001C13.2605 16.9008 13.678 17.4769 13.458 18.0466C13.3296 18.3802 13.0222 18.5854 12.6294 18.5875C11.8552 18.591 11.0809 18.5882 10.3059 18.5882C10.2107 18.5875 10.1148 18.5875 10.002 18.5875ZM8.44641 19.421C8.44148 18.9648 8.05434 18.5847 7.5981 18.5889C7.13622 18.5931 6.76037 18.9697 6.75967 19.4302C6.75826 19.9005 7.14962 20.2848 7.62067 20.275C8.07973 20.2658 8.45064 19.8822 8.44641 19.421Z" fill="white"/>
<path d="M17.7366 21.9741C16.3369 21.9699 15.2044 20.836 15.2051 19.439C15.2058 18.0442 16.3488 16.9033 17.7408 16.9082C19.1497 16.9132 20.2808 18.0583 20.2731 19.4708C20.2653 20.8465 19.1194 21.9776 17.7366 21.9741ZM18.5828 19.4426C18.5828 18.9814 18.2084 18.6027 17.7472 18.5978C17.2768 18.5928 16.8897 18.9814 16.8953 19.4517C16.901 19.9115 17.2818 20.2852 17.7437 20.2838C18.2006 20.2831 18.5835 19.8995 18.5828 19.4426Z" fill="white"/>
</svg>
